<?xml version="1.0" encoding="utf-8"?>
<!-- Generator: Adobe Illustrator 22.0.1, SVG Export Plug-In . SVG Version: 6.00 Build 0)  -->
<svg version="1.1" id="New_Logo" xmlns="http://www.w3.org/2000/svg" xmlns:xlink="http://www.w3.org/1999/xlink" x="0px" y="0px"
	 viewBox="0 0 382.7 141.4" style="enable-background:new 0 0 382.7 141.4;" xml:space="preserve">
<style type="text/css">
	.st0{fill:#FFFFFF;}
</style>
<g id="Uni_of_Notts">
	<path class="st0" d="M219.9,139l-0.5-1.3c-1.8,0.6-3,0.8-3.9,0.8c-2.5,0-3.9-2.2-3.9-6.2c0-3.7,1.4-5.8,4.2-5.8
		c0.9,0,2,0.2,3.4,0.5l0.3-1.3c-1.4-0.4-2.7-0.7-3.8-0.7c-3.9,0-5.9,2.6-5.9,7.6c0,4.8,2,7.6,5.5,7.6
		C216.5,140.1,218.1,139.7,219.9,139L219.9,139z"/>
	<polygon class="st0" points="233.2,139.8 233.2,125.2 231.4,125.2 231.4,131.5 224.4,131.5 224.4,125.2 222.7,125.2 222.7,139.8 
		224.4,139.8 224.4,132.8 231.4,132.8 231.4,139.8 	"/>
	<polygon class="st0" points="238.5,139.8 238.5,125.2 236.7,125.2 236.7,139.8 	"/>
	<polygon class="st0" points="252.5,139.8 252.5,125.2 251.1,125.2 251.1,138.2 244.5,125.2 242,125.2 242,139.8 243.5,139.8 
		243.5,127 250,139.8 	"/>
	<path class="st0" d="M261.7,125.2h-2l-5.2,14.6h1.6l1.4-3.9h6.3l1.4,3.9h1.8L261.7,125.2z M258,134.5l2.6-7.8l2.7,7.8H258z"/>
	<polygon class="st0" points="304.3,139.8 303.7,125.2 301.2,125.2 297.1,138.4 292.8,125.2 290.3,125.2 289.8,139.8 291.5,139.8 
		291.7,126.9 295.9,139.8 298,139.8 302.2,126.9 302.5,139.8 	"/>
	<path class="st0" d="M313.5,125.2h-2l-5.1,14.6h1.6l1.4-3.9h6.3l1.4,3.9h1.8L313.5,125.2z M309.7,134.5l2.6-7.9l2.7,7.9H309.7z"/>
	<polygon class="st0" points="329.3,139.8 329.3,138.5 322.8,138.5 322.8,125.2 321,125.2 321,139.8 	"/>
	<path class="st0" d="M337.7,125.2h-2l-5.1,14.6h1.6l1.4-3.9h6.3l1.4,3.9h1.8L337.7,125.2z M334,134.5l2.6-7.9l2.7,7.9H334z"/>
	<polygon class="st0" points="353.8,125.2 352,125.2 348.1,132 344.2,125.2 342.1,125.2 347.1,133.4 347.1,139.8 348.9,139.8 
		348.9,133.4 	"/>
	<path class="st0" d="M363.5,135.7c0-2.2-0.8-3.2-4-4.2c-2.7-0.8-3.1-1.2-3.1-2.6c0-1.6,1.1-2.4,2.7-2.4c0.9,0,2,0.2,3.5,0.5
		l0.3-1.3c-1.4-0.4-2.6-0.6-3.9-0.6c-2.6,0-4.4,1.5-4.4,4c0,3.4,3.3,3.6,5.8,4.6c1.1,0.5,1.4,1.1,1.4,2.1c0,1.6-1.4,2.6-3.3,2.6
		c-1.1,0-2.2-0.2-3.7-0.6l-0.4,1.4c1.6,0.5,2.8,0.7,4.2,0.7C361.5,140,363.5,138.3,363.5,135.7L363.5,135.7z"/>
	<polygon class="st0" points="367.9,139.8 367.9,125.2 366.2,125.2 366.2,139.8 	"/>
	<path class="st0" d="M377.3,125.2h-2l-5.2,14.6h1.6l1.4-3.9h6.3l1.4,3.9h1.8L377.3,125.2z M373.6,134.5l2.6-7.9l2.7,7.9H373.6z"/>
	<path class="st0" d="M175.6,133.9v-8.6h-1.5v9.2c0,1.4-0.1,2-0.4,2.6c-0.5,1-1.6,1.4-3.2,1.4c-2.4,0-3.6-1.1-3.6-3.5v-9.8h-1.7v8.5
		c0,2.8,0.1,3.5,0.8,4.4c0.8,1.1,2.4,1.8,4.4,1.8c1.8,0,3.2-0.5,4.2-1.4C175.4,137.7,175.6,137,175.6,133.9L175.6,133.9z"/>
	<polygon class="st0" points="189,139.8 182.4,132 188.9,125.2 186.9,125.2 180.5,131.9 180.5,125.2 178.8,125.2 178.8,139.8 
		180.5,139.8 180.5,132.3 186.9,139.8 	"/>
	<rect x="198.4" y="123.8" class="st0" width="0.7" height="17.6"/>
	<rect x="277.1" y="123.8" class="st0" width="0.7" height="17.6"/>
	<path class="st0" d="M377.1,103.8V86.2c0-2.2-1.2-4-4.2-4c-1.7,0-2.9,0.5-3.9,1.4c0.3,0.8,0.4,1.7,0.4,3.4v16.7h-5.6V86.2
		c0-2-0.5-4.2-4.2-4.2c-1.8,0-2.5,0.3-3.5,0.8v21h-5.6V80.6c2.1-0.9,5.1-2,9.4-2c3.5,0,5.8,0.8,7.2,2c1.7-1.2,3.9-2,7-2
		c5.9,0,8.5,3.4,8.5,7.6v17.6H377.1L377.1,103.8z"/>
	<path class="st0" d="M318.1,103.8V86.6c0-2.4-1-4.2-4.2-4.2c-1.7,0-3,0.5-4.2,1.2v20.1h-5.6V70.7h5.6v9.2c1.4-0.7,3.6-1.1,5.5-1.1
		c6.1,0,8.3,3.7,8.3,7.4v17.6L318.1,103.8L318.1,103.8z"/>
	<path class="st0" d="M249.8,75.6c-2.1,0-3.3-1.4-3.3-3c0-1.6,1.1-3,3.3-3c2,0,3.3,1.4,3.3,3C253.1,74.1,251.9,75.6,249.8,75.6
		L249.8,75.6z"/>
	<path class="st0" d="M270.6,103.8V86.2c0-2-0.8-4.2-4.4-4.2c-1.8,0-2.7,0.3-3.8,0.8v21h-5.6V80.6c2.1-0.9,5.5-2,9.6-2
		c7.3,0,9.8,3.6,9.8,7.5v17.6L270.6,103.8L270.6,103.8z"/>
	<polygon class="st0" points="247,103.8 247,79.1 252.6,79.1 252.6,103.8 	"/>
	<path class="st0" d="M239.7,104.1c-4.8,0-6.8-2.7-6.8-6.7V82.7h-2.7v-3.6h2.7v-5l5.6-1.6V79h3.9v3.6h-3.9v14.7
		c0,2.2,1.2,2.9,2.7,2.9c0.5,0,1.1,0,1.7-0.1v3.7C242.3,103.9,240.9,104.1,239.7,104.1L239.7,104.1z"/>
	<path class="st0" d="M224.8,104.1c-4.8,0-6.8-2.7-6.8-6.7V82.7h-2.7v-3.6h2.7v-5l5.6-1.6V79h3.9v3.6h-3.9v14.7
		c0,2.2,1.2,2.9,2.7,2.9c0.5,0,1.1,0,1.7-0.1v3.7C227.4,103.9,226,104.1,224.8,104.1L224.8,104.1z"/>
	<path class="st0" d="M184.1,103.8L172.3,84c-0.8-1.2-1.3-2.4-1.9-3.9h-0.1c0.2,1.6,0.3,2.9,0.3,4v19.7h-5.5V72.3h5.8l10.9,18.5
		c0.6,1.1,1.2,2.1,1.7,3.6h0.1c-0.2-1.6-0.2-2.6-0.2-3.8V72.2h5.5v31.5L184.1,103.8L184.1,103.8z"/>
	<path class="st0" d="M337,78.7c-3.9,0-6.8,1.1-8.5,1.8l1.3,3.4c1.4-0.8,3.8-1.6,6.1-1.6c3,0,4.8,0.8,4.8,4v1.4
		c-0.5-0.1-2.1-0.4-3.6-0.4c-5.7,0-10.3,3-10.3,8.8c0,4.8,3.2,8.3,10.2,8.3c3.9,0,7-0.8,9.1-1.7V87.1
		C346.3,80.9,342.1,78.7,337,78.7L337,78.7z M340.8,100.7c-0.7,0.3-2,0.7-3.3,0.7c-3,0-5-1.9-5-5.3c0-3.2,1.7-5.5,5.1-5.5
		c1.6,0,2.6,0.3,3.1,0.4L340.8,100.7L340.8,100.7z"/>
	<path class="st0" d="M291.5,78.7c-7.9,0-11.9,5.1-11.9,13c0,7.7,3.9,12.3,9.9,12.3c2.2,0,3.9-0.4,4.8-0.9v1.6
		c0,3.3-1.7,5.5-5.8,5.5c-2.7,0-4.5-0.8-6-1.4l-1.6,3.5c1.8,1,4.8,1.8,8.6,1.8c6.1,0,10.4-3.4,10.4-9.9V80.4
		C298.1,79.5,295.2,78.7,291.5,78.7L291.5,78.7z M294.4,99.5c-0.8,0.5-1.9,0.8-3.2,0.8c-3.9,0-5.7-3-5.7-8.6c0-5.9,1.8-9.5,6-9.5
		c1.2,0,2.1,0.1,3,0.5L294.4,99.5L294.4,99.5z"/>
	<path class="st0" d="M203.1,78.7c-7,0-10.4,5.3-10.4,12.9c0,7.4,3.5,12.8,10.4,12.8c7,0,10.4-5.3,10.4-12.8
		C213.5,84,210,78.7,203.1,78.7L203.1,78.7z M203.4,100.8c-3.9,0-4.5-5-4.5-9.4c0-4.5,0.6-9.5,4.5-9.5c3.9,0,4.5,4.9,4.5,9.5
		C207.9,95.9,207.2,100.8,203.4,100.8L203.4,100.8z"/>
	<path class="st0" d="M334.1,40.7c-2,0-2.5,1-2.5,2.5v0.8h3v3h-3v13.9h-4.5V46.9h-1.8v-3h1.8v-1.2c0-3.4,2.2-5.2,5.9-5.2
		c0.8,0,1.3,0,2,0.1v3L334.1,40.7L334.1,40.7z"/>
	<path class="st0" d="M292.2,67.6c-2.5,0-4.5-0.5-5.8-1.2l1-2.6c1,0.5,2.3,0.9,4.2,0.9c2.8,0,3.7-1.3,3.7-3.5v-1.1
		c-0.5,0.3-1.7,0.8-3.5,0.8c-4.2,0-6-2-6-5.5V44h4.5v11.2c0,1.5,0.5,2.7,2.7,2.7c1.1,0,1.7-0.3,2.3-0.5V44h4.5v16.3
		C299.8,65.6,296.6,67.6,292.2,67.6L292.2,67.6z"/>
	<path class="st0" d="M280.3,61.1c-3.3,0-4.9-1.7-4.9-4.6V47h-1.9v-3h1.9v-3.5l4.5-1.2V44h2.7v3h-2.7v9.1c0,1.5,0.8,2,1.8,2
		c0.5,0,1,0,1.5-0.1v2.8C282.8,60.9,281.9,61.1,280.3,61.1L280.3,61.1z"/>
	<polygon class="st0" points="266,60.9 266,44 270.4,44 270.4,60.9 	"/>
	<path class="st0" d="M256.7,61.2c-2.2,0-3.9-0.5-5.2-1.2l1.1-2.8c0.9,0.5,2,1,3.5,1c1.7,0,2.6-0.5,2.6-1.8c0-1.2-0.8-1.7-2.7-2.5
		c-3.3-1.3-3.9-3.3-3.9-5.1c0-2.7,2-5,5.8-5c2,0,3.6,0.5,4.8,1.2l-1.2,2.6c-0.5-0.3-1.7-0.9-3-0.9c-1.5,0-2.3,0.7-2.3,1.7
		c0,1.2,1.2,1.7,2.7,2.3c3.4,1.3,4.2,3.3,4.2,5.4C262.9,59,260.4,61.2,256.7,61.2L256.7,61.2z"/>
	<path class="st0" d="M250.1,47c-0.3-0.1-1.3-0.2-2-0.2c-0.8,0-1.4,0.1-1.9,0.2v13.9h-4.5V45c0.7-0.3,3.3-1.2,6.2-1.2
		c1.7,0,2.2,0.1,2.8,0.2L250.1,47L250.1,47z"/>
	<path class="st0" d="M203.1,41.9c-1.7,0-2.4-1-2.4-2.2c0-1.2,0.8-2.2,2.4-2.2c1.5,0,2.4,1,2.4,2.2
		C205.6,40.9,204.6,41.9,203.1,41.9L203.1,41.9z"/>
	<path class="st0" d="M217.6,60.9h-4.2L207.6,44h4.8l2.2,7.9c0.2,0.8,0.8,2.7,1,3.7h0.1c0.1-1,0.7-3,0.9-3.7l2.3-7.9h4.5L217.6,60.9
		L217.6,60.9z"/>
	<polygon class="st0" points="200.8,60.9 200.8,44 205.2,44 205.2,60.9 	"/>
	<path class="st0" d="M268.3,41.9c-1.7,0-2.4-1-2.4-2.2c0-1.2,0.8-2.2,2.4-2.2c1.5,0,2.4,1,2.4,2.2
		C270.7,40.9,269.8,41.9,268.3,41.9L268.3,41.9z"/>
	<path class="st0" d="M193.1,60.9V49c0-1.2-0.5-2.4-2.7-2.4c-1.1,0-1.7,0.2-2.3,0.5v13.9h-4.5V45c1.9-0.8,4.2-1.3,7-1.3
		c5.1,0,7,2.5,7,5.4v11.9L193.1,60.9L193.1,60.9z"/>
	<path class="st0" d="M172.8,61.2c-4.4,0-7.6-2.3-7.6-6.7V39.4h4.7v15.1c0,2,1.1,3.2,3,3.2c1.8,0,3-1.1,3-3.2V39.4h4.7v15.1
		C180.4,58.9,177.2,61.2,172.8,61.2L172.8,61.2z"/>
	<path class="st0" d="M316.2,43.6c-5,0-7.4,3.7-7.4,8.7c0,5.1,2.4,8.9,7.4,8.9c5,0,7.4-3.7,7.4-8.9
		C323.6,47.3,321.2,43.6,316.2,43.6L316.2,43.6z M316.2,58.2c-2.3,0-2.8-2.6-2.8-5.9c0-3.2,0.5-5.8,2.8-5.8c2.3,0,2.9,2.6,2.9,5.8
		C319,55.6,318.4,58.2,316.2,58.2L316.2,58.2z"/>
	<path class="st0" d="M238.8,52c0-5.4-2.7-8.4-7.3-8.4c-4.7,0-7.5,3.3-7.5,8.7c0,5.7,3.2,8.9,8.2,8.9c2.6,0,4.6-0.5,6-1.3l-1.1-3
		c-1.2,0.5-2.5,1-4.5,1c-2,0-3.9-0.9-4.2-4.2h10.4L238.8,52L238.8,52z M234.5,51h-6.4c0-3.3,1.3-4.5,3.2-4.5c1.7,0,3.2,1.1,3.2,4.2
		L234.5,51L234.5,51z"/>
</g>
<rect class="st0" width="141.4" height="141.4"/>
<g id="Castle">
	<g>
		<path d="M95.5,34c-3.2-1.7-6.2-3.1-10.3-4.1v8.4c3.6,0.8,7.1,2.1,10.3,3.6V34z"/>
		<path d="M81.5,61.6c-1,0-1.8,0.8-1.8,1.9l-0.5,17.2H84l-0.6-17.2C83.3,62.3,82.6,61.6,81.5,61.6z"/>
		<path d="M85.8,108.9c-5.1,0-8.8-1.2-13.5-3.6c-5-2.6-10.6-4.8-17.7-4.8c-6.7,0-13.8,2.3-19.2,10.4c6.5-4,12.5-5.3,17.6-5.3
			c5.4,0,9.5,1.4,13.7,3.6c4.8,2.5,8.9,4.2,14.8,4.2c5.8,0,12.3-2.2,17.9-9.5C94.9,107.7,90.1,108.9,85.8,108.9z"/>
		<path d="M57.3,97.7c4.5,0,9.8,1.3,15.8,4.5v-17l-2.5-3.1V58.6l4.8-7.5l-2,7.2c1.4-0.2,2.7-0.3,4.2-0.3c4.8,0,9.2,0.8,12.9,2.3
			l4.8-4.5V43.7c-3.2-1.4-6.7-2.6-10.3-3.6c-2.2-0.5-4.5-0.9-7-1.2V28.4c-2.6-0.4-5.2-0.5-7.9-0.5c-2.6,0-5.1,0.2-7.6,0.5v10
			c-2.3,0.3-4.7,0.8-6.9,1.3v-9.8c-3.9,1.1-7.6,2.6-11.1,4.5v20.5l4.7,4.5l-1.4,23l-3.8,3.8v13.3l1.3,1.4
			C48.7,99.1,52.6,97.7,57.3,97.7z M56.6,63.4c0-1.1,0.8-1.9,1.8-1.9c1,0,1.8,0.8,1.8,1.9l0.6,17.2H56L56.6,63.4z"/>
	</g>
</g>
</svg>
